{"title":"Chudail Story Hindi 2016 DesiSCR x264-HDF.mp4","uid":15679605,"size":846448482,"categoryP":"video","categoryS":"movies","magnet":"?xt=urn:btih:ee7c3f8d372aab274f958d60e1f730cc18386960&amp;dn=Chudail+Story+Hindi+2016+DesiSCR+x264-HDF.mp4&amp;tr=udp%3A%2F%2Ftracker.leechers-paradise.org%3A6969&amp;tr=udp%3A%2F%2Fzer0day.ch%3A1337&amp;tr=udp%3A%2F%2Fopen.demonii.com%3A1337&amp;tr=udp%3A%2F%2Ftracker.coppersurfer.tk%3A6969&amp;tr=udp%3A%2F%2Fexodus.desync.com%3A6969","seeders":1,"leechers":0,"uploader":null,"files":1,"time":1472294370,"description":"http://www.movierulzfull.in/ presents:\r\n\r\nChudail Story Hindi 2016 DesiSCR x264-HDF.mp4\r\n\r\nScreens:\r\n \nhttp://extraimago.com/images/2016/08/27/wSNP.png \nhttp://extraimago.com/images/2016/08/27/wSNX.png \nhttp://extraimago.com/images/2016/08/27/wSNg.png \nhttp://extraimago.com/images/2016/08/27/wSN5.png \nhttp://extraimago.com/images/2016/08/27/wSND.png\r\n\r\nInfo:\r\n\r\nFormat : MPEG-4\r\nFormat profile : Base Media\r\nCodec ID : isom (isom/iso2/avc1/mp41)\r\nFile size : 807 MiB\r\nDuration : 1 h 39 min\r\nOverall bit rate : 1 132 kb/s\r\nWriting application : Lavf57.29.101\r\n\r\nVideo\r\nID : 1\r\nFormat : AVC\r\nFormat/Info : Advanced Video Codec\r\nFormat profile :   \r\nFormat settings, CABAC : Yes\r\nFormat settings, ReFrames : 3 frames\r\nCodec ID : avc1\r\nCodec ID/Info : Advanced Video Coding\r\nDuration : 1 h 39 min\r\nBit rate : 997 kb/s\r\nWidth : 854 pixels\r\nHeight : 364 pixels\r\nDisplay aspect ratio : 2.35:1\r\nFrame rate mode : Variable\r\nFrame rate : 24.000 FPS\r\nMinimum frame rate : 23.810 FPS\r\nMaximum frame rate : 24.390 FPS\r\nColor space : YUV\r\nChroma subsampling : 4:2:0\r\nBit depth : 8 bits\r\nScan type : Progressive\r\nBits/(Pixel*Frame) : 0.134\r\nStream size : 711 MiB (88%)\r\nWriting library : Zencoder Video Encoding System\r\nColor range : Limited\r\nColor primaries : BT.709\r\nTransfer characteristics : BT.709\r\nMatrix coefficients : BT.709\r\n\r\nAudio\r\nID : 2\r\nFormat : AAC\r\nFormat/Info : Advanced Audio Codec\r\nFormat profile : LC\r\nCodec ID : 40\r\nDuration : 1 h 39 min\r\nBit rate mode : Constant\r\nBit rate : 128 kb/s\r\nChannel(s) : 2 channels\r\nChannel positions : Front: L R\r\nSampling rate : 44.1 kHz\r\nFrame rate : 43.066 FPS (1024 spf)\r\nCompression mode : Lossy\r\nStream size : 91.2 MiB (11%)\r\nDefault : Yes\r\nAlternate group : 1 \r\n \nhttp://www.movierulzfull.in/chudail-story-full-movie-watch/\r\n \nhttp://tvmoviereviews.drupalgardens.com/content/chudail-story-review-0","torrent":{"xt":"urn:btih:ee7c3f8d372aab274f958d60e1f730cc18386960","amp;dn":"Chudail+Story+Hindi+2016+DesiSCR+x264-HDF.mp4","amp;tr":["udp%3A%2F%2Ftracker.leechers-paradise.org%3A6969","udp%3A%2F%2Fzer0day.ch%3A1337","udp%3A%2F%2Fopen.demonii.com%3A1337","udp%3A%2F%2Ftracker.coppersurfer.tk%3A6969","udp%3A%2F%2Fexodus.desync.com%3A6969"],"infoHash":"ee7c3f8d372aab274f958d60e1f730cc18386960","infoHashBuffer":{"type":"Buffer","data":[238,124,63,141,55,42,171,39,79,149,141,96,225,247,48,204,24,56,105,96]},"announce":[],"urlList":[]}}